<svg xmlns="http://www.w3.org/2000/svg" viewBox="0 0 480 470" xml:space="preserve">
  <linearGradient id="a" gradientUnits="userSpaceOnUse" x1="511.513" y1="-33.567" x2="41.191" y2="435.116" gradientTransform="matrix(1 0 0 -1 0 472)">
    <stop offset="0" style="stop-color:#ff9f14"/>
    <stop offset=".998" style="stop-color:#ffbb4d"/>
  </linearGradient>
  <path style="fill:url(#a)" d="M0 0h480v470H0z"/>
  <radialGradient id="b" cx="154.889" cy="341.251" r="386.414" gradientTransform="matrix(1 0 0 -1 0 472)" gradientUnits="userSpaceOnUse">
    <stop offset="0" style="stop-color:#4c2b08"/>
    <stop offset="1" style="stop-color:#191208"/>
  </radialGradient>
  <path d="M36.7 37v396H444V37z" style="fill:url(#b)"/>
  <linearGradient id="c" gradientUnits="userSpaceOnUse" x1="346.305" y1="340.667" x2="181.371" y2="176.308">
    <stop offset="0" style="stop-color:#ff9f14"/>
    <stop offset=".998" style="stop-color:#ffbb4d"/>
  </linearGradient>
  <path d="M175.2 239.2h42.5l-21.2-82.4zm65.8 90.3L225.5 276H168l-15.5 53.5h-39.4l55.4-189.3v-20.7h52.8l63.2 210zm104.7 0h-42.5V169.7h42.5zm-21-178.9c-12.2 0-22-9.7-22-21.8 0-12 9.9-21.8 22-21.8s22 9.8 22 21.8-9.9 21.8-22 21.8" style="fill:url(#c)"/>
</svg>
