<svg xmlns="http://www.w3.org/2000/svg" width="600" height="600" viewBox="0 0 600 600" xml:space="preserve">
  <linearGradient id="a" gradientUnits="userSpaceOnUse" x1="102.512" y1="157.094" x2="507.491" y2="390.908" gradientTransform="matrix(1 0 0 -1 -6 505)">
    <stop offset="0" style="stop-color:#3b82f6"/>
    <stop offset=".114" style="stop-color:#388be2"/>
    <stop offset=".539" style="stop-color:#2caa9b"/>
    <stop offset=".845" style="stop-color:#25be6f"/>
    <stop offset="1" style="stop-color:#22c55e"/>
  </linearGradient>
  <path fill="url(#a)" stroke="#4D4D4D" stroke-width="20" stroke-miterlimit="10" d="M499 349c0 6.627-5.373 12-12 12H111c-6.627 0-12-5.373-12-12V113c0-6.627 5.373-12 12-12h376c6.627 0 12 5.373 12 12z"/>
  <path fill="#4D4D4D" d="M560 441c0 13.255-10.745 24-24 24H64c-13.255 0-24-10.745-24-24v-16c0-13.255 10.745-24 24-24h472c13.255 0 24 10.745 24 24z"/>
  <path fill="#FFF" d="M126 198h20v19h-20zm0-31h20v19h-20zm0-33h20v19h-20zm42 196h261v14H168zm384.012-148c0-74.242-58.313-135.122-131.628-139.462-1.511-.166-3.021-.279-4.567-.279-.454 0-.908.043-1.362.061-.813-.017-1.624-.061-2.454-.061-77.202 0-140.012 62.688-140.012 139.741S334.798 321.741 412 321.741c.82 0 1.642-.053 2.454-.069.454.017.908.069 1.362.069 1.537 0 3.048-.104 4.567-.279 73.316-4.341 131.629-65.221 131.629-139.462m-26.051 44.984c-4.813-1.396-16.899-4.428-38.227-6.934 1.765-12.061 2.734-24.803 2.734-38.051 0-10.445-.604-20.559-1.721-30.296 27.021-3.231 38.863-7.292 39.649-7.572l-3.249-9.17c6.069 14.489 9.432 30.375 9.432 47.038a121.4 121.4 0 0 1-8.618 44.985M350.177 182c0-9.773.646-19.318 1.834-28.497 14.157 1.109 31.1 1.939 50.994 2.122v60.601c-19.38.184-35.929.97-49.858 2.044-1.922-11.52-2.97-23.711-2.97-36.278zm70.268-121.113c21.414 6.209 39.754 35.938 47.963 75.351-13.205 1.048-29.1 1.825-47.963 2zm-17.431.209v77.132c-18.654-.184-34.628-.952-48.051-1.974 8.384-38.923 26.863-68.433 48.051-75.158m0 172.544v69.246c-19.764-6.271-37.169-32.356-46.226-67.412 13.03-.96 28.409-1.65 46.217-1.834zm17.431 69.473V233.64c17.999.175 33.309.891 46.182 1.896-8.899 35.517-26.2 61.795-46.182 67.577m0-86.879v-60.601c20.008-.183 36.837-1.03 50.81-2.183a231 231 0 0 1 1.773 28.541c0 12.593-1.014 24.803-2.874 36.33-13.754-1.118-30.234-1.912-49.709-2.096zm101.49-88.294c-2.638.821-13.659 3.957-35.754 6.559-4.926-26.182-13.834-48.566-25.414-64.731 26.618 11.571 48.339 32.287 61.177 58.172zM370.193 66.991c-14.252 16.357-25.877 39.894-32.234 67.718-19.781-2.14-31.641-4.664-36.383-5.808 13.842-28.558 38.487-50.967 68.609-61.901zm-75.097 78.216c3.362.908 16.078 4.079 39.728 6.69a217 217 0 0 0-2.097 30.104c0 13.179 1.188 25.851 3.345 37.85-20.305 2.192-32.793 4.82-38.391 6.166a121.5 121.5 0 0 1-8.244-44.024 121.7 121.7 0 0 1 5.668-36.793zm10.218 96.93c6.349-1.345 17.72-3.406 34.549-5.161 6.629 24.479 17.405 45.194 30.33 60.032-27.597-10.025-50.565-29.676-64.879-54.862zm155.444 52.077c10.437-14.541 18.689-34.121 23.824-56.985 17.31 1.982 28.174 4.314 33.649 5.694-13.099 22.672-33.256 40.776-57.473 51.291"/>
</svg>
