<svg xmlns="http://www.w3.org/2000/svg" viewBox="0 0 340 200" xml:space="preserve">
  <path d="M135.6 92.2h7.9v40.2c0 10.6-4.7 17.9-15.6 17.9-3.2.1-6.4-.5-9.5-1.5v-7.7c2.6 1 5.4 1.5 8.2 1.5 6.7 0 9-4 9-9.8zm22.4-3.1c2.9 0 5.3 2.4 5.3 5.3s-2.4 5.3-5.3 5.3-5.3-2.4-5.3-5.3c-.2-2.7 1.9-5.1 4.6-5.3zm-3.9 16.9h7.6v44h-7.6zm26.4 44h-7.4v-44h7.4v7.8c2.6-5.2 6.9-8.9 15.6-8.4v7.4c-9.7-1-15.6 1.9-15.6 11.3zm51-7.9c-2.8 5.8-8.1 8.8-14.9 8.8-11.7 0-17.6-9.9-17.6-22.9 0-12.4 6.2-22.9 18.5-22.9 6.4 0 11.4 2.9 14 8.6V106h7.6v44h-7.6zm-12.8 1.7c6.8 0 12.9-4.3 12.9-14.1v-3.5c0-9.8-5.6-14.1-12-14.1-8.5 0-12.9 5.6-12.9 15.8-.1 10.7 4.2 15.9 12 15.9" style="fill:#20385b"/>
  <path d="M95.9 83.2H61.3c0 8.6 7 15.6 15.6 15.6h6.4v6.1c0 8.6 7 15.6 15.6 15.6V86.2c0-1.7-1.4-3-3-3" style="fill:#0082ff"/>
  <linearGradient id="a" gradientUnits="userSpaceOnUse" x1="81.033" y1="101.527" x2="66.323" y2="86.357" gradientTransform="matrix(1 0 0 -1 0 202)">
    <stop offset=".18" style="stop-color:#0050d3"/>
    <stop offset="1" style="stop-color:#0082ff"/>
  </linearGradient>
  <path d="M78.8 100.4H44.2c0 8.6 7 15.6 15.6 15.6h6.4v6.2c0 8.6 7 15.6 15.6 15.6v-34.3c0-1.7-1.4-3.1-3-3.1" style="fill:url(#a)"/>
  <linearGradient id="b" gradientUnits="userSpaceOnUse" x1="64.897" y1="84.203" x2="47.887" y2="67.653" gradientTransform="matrix(1 0 0 -1 0 202)">
    <stop offset=".18" style="stop-color:#0050d3"/>
    <stop offset="1" style="stop-color:#0082ff"/>
  </linearGradient>
  <path style="fill:url(#b)" d="M61.7 117.6H27.1c0 8.6 7 15.6 15.6 15.6H49v6.1c0 8.6 7 15.6 15.6 15.6v-34.4c.1-1.5-1.3-2.9-2.9-2.9"/>
  <path d="M224.9 63.7c0-4-2.6-5.8-7.4-7-3-.8-3.7-1.4-3.7-2.4 0-1.2 1.1-1.8 3.1-1.8 2.4.1 4.8.7 7 1.8v-5c-2.1-1-4.5-1.5-6.8-1.5-5.3 0-8.2 2.5-8.2 6.6 0 3.9 2.6 5.9 7 6.9 3.1.7 4 1.2 4 2.5 0 1-.7 1.8-3 1.8-2.8-.1-5.6-.9-8.1-2.3v5.3c2.5 1.2 5.2 1.9 8 1.9 5.4 0 8.1-2.7 8.1-6.8m60.4-15.5v22h4.7V53.4l2 4.4 6.6 12.3h5.9v-22h-4.7v14.2l-1.8-4.1-5.3-10.1h-7.4zm-29.7 0h-5.1v22h5.1zm-86.4 0v22h10.5l1.6-4.8h-7V48.2zm-20.8 0V53h5.7v17.2h5.1V53h6.1v-4.8zm-7.4 0h-6.7l-7.7 22h5.9l1.1-3.7c1.3.4 2.7.6 4.1.6s2.8-.2 4.1-.6l1.1 3.7h5.9zm-3.4 14.3c-1 0-1.9-.1-2.8-.4l2.8-9.6 2.8 9.6c-.9.3-1.8.4-2.8.4m60.1-14.3H191l-7.7 22h5.9l1.1-3.7c1.3.4 2.7.6 4.1.6s2.8-.2 4.1-.6l1.1 3.7h5.9zm-3.3 14.3c-1 0-1.9-.1-2.8-.4l2.8-9.6 2.8 9.6c-.9.3-1.9.4-2.8.4M274 48.2h-6.7l-7.7 22h5.9l1.1-3.7c1.3.4 2.7.6 4.1.6s2.8-.2 4.1-.6l1.1 3.7h5.9zm-3.4 14.3c-1 0-1.9-.1-2.8-.4l2.8-9.6 2.8 9.6c-.9.3-1.8.4-2.8.4m-25.4 1.2c0-4-2.6-5.8-7.4-7-3-.8-3.7-1.4-3.7-2.4 0-1.2 1.1-1.8 3-1.8 2.4.1 4.8.7 7 1.8v-5q-3.3-1.5-6.9-1.5c-5.3 0-8.2 2.5-8.2 6.6 0 3.9 2.6 5.9 7 6.9 3.1.7 4 1.2 4 2.5 0 1-.7 1.8-3 1.8-2.8-.1-5.6-.9-8.1-2.3v5.3c2.5 1.2 5.2 1.9 8 1.9 5.7 0 8.3-2.7 8.3-6.8" style="fill:#0052cc"/>
</svg>
